# xmcd
#
# Track frame offsets:
#	150
#	15374
#	30135
#
# Disc length: 511 seconds
#
# Revision: 0
# Processed by: cddbd v1.4PL0 Copyright (c) Steve Scherf et al.
# Submitted via: audiograbber 1.82.02
#
DISCID=0d01fd03
DTITLE=J Haggard - demo
DYEAR=1900
DGENRE=
TTITLE0=demo1
TTITLE1=demo2
TTITLE2=Cadillac On Outta Here
EXTD=Cadillac On Outta Here
EXTT0=
EXTT1=
EXTT2=
PLAYORDER=
